<?xml version="1.0" standalone="no"?>
<!DOCTYPE svg PUBLIC "-//W3C//DTD SVG 20010904//EN"
 "http://www.w3.org/TR/2001/REC-SVG-20010904/DTD/svg10.dtd">
<svg version="1.0" xmlns="http://www.w3.org/2000/svg"
 width="256.000000pt" height="256.000000pt" viewBox="0 0 256.000000 256.000000"
 preserveAspectRatio="xMidYMid meet">

<g transform="translate(0.000000,256.000000) scale(0.100000,-0.100000)"
fill="#FFFFFF" stroke="none">
<path d="M1056 2535 c-163 -31 -359 -112 -496 -205 -86 -58 -232 -201 -304
-296 -111 -149 -195 -344 -232 -541 -20 -107 -15 -393 9 -486 14 -54 13 -58
-4 -68 -11 -6 -19 -21 -19 -36 0 -32 87 -183 106 -183 7 0 25 -21 40 -47 15
-27 39 -68 54 -93 15 -25 49 -94 75 -153 51 -115 50 -114 108 -92 8 4 39 -15
73 -43 140 -117 314 -207 492 -254 151 -39 381 -50 529 -24 241 42 474 154
637 306 l63 60 58 -20 c75 -26 101 -25 119 2 7 13 54 144 102 291 91 275 91
275 52 289 -4 2 0 32 9 68 13 50 17 112 18 265 0 188 -2 206 -28 309 -121 463
-461 807 -916 928 -104 27 -134 31 -291 34 -125 2 -197 -1 -254 -11z m323
-956 c65 -19 130 -77 170 -149 33 -59 36 -72 36 -145 -1 -98 -26 -162 -90
-225 -41 -41 -45 -42 -82 -33 l-38 9 45 24 c25 12 55 29 67 37 l22 15 -35 47
c-30 43 -33 53 -28 93 12 89 -40 166 -127 189 -40 11 -53 10 -93 -5 -28 -11
-57 -32 -74 -54 -23 -30 -27 -45 -27 -102 0 -57 4 -72 27 -102 24 -32 43 -43
102 -62 16 -6 14 -11 -19 -47 -34 -38 -36 -42 -20 -59 16 -17 15 -19 -2 -28
-15 -9 -31 1 -92 53 -40 35 -79 61 -86 58 -9 -3 -24 14 -42 49 -24 46 -28 64
-28 138 0 69 4 94 24 133 74 152 225 216 390 166z m-551 -436 c11 -32 23 -65
27 -74 5 -14 -6 -21 -59 -39 -36 -12 -68 -25 -71 -30 -3 -5 -2 -34 1 -65 6
-49 10 -56 25 -52 13 4 19 0 19 -11 0 -13 -10 -18 -40 -19 -22 -2 -53 -9 -70
-18 -16 -8 -31 -15 -35 -15 -3 0 -5 20 -5 45 0 144 -162 226 -354 181 -38 -9
-70 -15 -72 -13 -6 6 -24 109 -24 138 l0 29 319 0 319 0 20 -57z m1562 30 c-1
-51 -28 -184 -41 -199 -11 -14 -15 -14 -23 -2 -14 19 -217 62 -250 54 -25 -6
-26 -10 -26 -71 0 -63 -1 -65 -25 -65 -14 0 -42 -7 -62 -15 -19 -8 -37 -15
-38 -15 -2 0 -6 21 -9 48 -4 26 -12 75 -18 110 l-10 62 -77 0 c-55 0 -83 -5
-101 -17 -23 -16 -23 -16 -16 3 7 17 31 86 42 122 3 9 77 12 329 12 l325 0 0
-27z m-951 -24 c13 -17 21 -32 19 -34 -1 -1 -32 -17 -67 -34 -92 -47 -105 -35
-41 39 29 33 55 60 59 60 4 0 17 -14 30 -31z m434 -215 l16 -106 -25 -45 c-43
-81 -26 -175 40 -218 13 -9 27 -23 30 -32 5 -13 -2 -14 -51 -8 -32 4 -61 12
-64 17 -4 6 -10 39 -14 74 -7 66 -22 130 -25 104 -1 -8 -9 -33 -19 -55 l-18
-40 -28 63 c-15 34 -31 62 -35 62 -4 0 -11 -30 -16 -67 l-9 -68 -54 2 c-30 2
-56 4 -57 6 -10 10 16 101 35 121 19 20 19 24 5 37 -14 14 -13 26 3 120 l18
104 57 3 57 3 6 -38 c18 -100 21 -103 35 -23 7 41 14 78 17 83 2 4 21 7 42 7
l38 0 16 -106z m-917 29 l9 -68 48 68 c26 37 51 67 55 67 4 0 29 -22 55 -48
l47 -48 -51 -49 c-28 -28 -59 -62 -70 -76 l-19 -26 57 -22 c32 -12 77 -41 104
-66 28 -26 63 -48 88 -55 40 -11 41 -12 41 -55 0 -25 -2 -45 -4 -45 -2 0 -77
36 -167 80 l-164 80 -5 -88 -5 -87 -42 -6 c-31 -4 -44 -2 -48 9 -9 24 -5 58
10 95 21 52 19 96 -10 152 -14 30 -27 76 -31 118 -6 61 -9 68 -26 64 -15 -4
-19 -1 -16 16 2 16 16 25 58 38 30 9 60 17 66 18 7 1 15 -27 20 -66z m-467 32
c78 -40 108 -118 77 -198 -16 -44 -62 -100 -104 -129 l-23 -16 26 -102 c14
-57 24 -108 22 -114 -6 -15 -79 -38 -88 -28 -4 4 -49 100 -100 214 -81 181
-95 206 -110 197 -10 -5 -21 -9 -26 -9 -8 0 -73 102 -73 114 0 16 159 80 225
90 47 6 146 -4 174 -19z m944 -19 c78 -34 78 -36 4 -117 -49 -54 -62 -75 -51
-77 9 -2 29 5 45 17 36 27 37 27 75 -10 l33 -32 -27 -22 c-39 -32 -64 -43
-120 -56 -141 -30 -250 82 -198 204 36 84 153 130 239 93z m792 -9 l60 -13 22
-104 c12 -58 24 -112 26 -120 2 -8 9 12 16 44 7 33 19 81 27 107 l14 47 48
-10 c26 -6 51 -14 56 -18 7 -7 -137 -465 -153 -482 -4 -4 -23 -3 -43 2 l-36
10 -8 133 -7 132 -17 -92 c-9 -51 -18 -94 -21 -97 -2 -3 -24 -2 -48 1 l-43 6
7 36 c4 20 15 45 25 56 55 61 67 157 27 216 -17 26 -22 44 -19 72 3 27 0 38
-12 43 -22 8 -21 44 2 44 9 -1 44 -6 77 -13z m-130 -121 c39 -16 75 -68 75
-106 -1 -79 -78 -160 -158 -167 -129 -12 -183 137 -84 233 53 51 108 64 167
40z m-955 -40 c0 -19 -4 -23 -20 -19 -32 8 -23 38 13 42 4 1 7 -10 7 -23z
m-303 -21 c34 -34 35 -38 31 -94 -3 -45 -11 -68 -32 -95 -64 -85 -171 -100
-233 -32 -54 59 -44 145 24 207 43 40 63 48 122 49 48 0 57 -4 88 -35z m621
-182 l-3 -37 80 -13 c44 -7 94 -11 111 -8 23 4 33 1 38 -10 4 -11 13 -14 26
-10 16 5 20 2 20 -19 0 -28 1 -29 127 -51 104 -19 128 -13 128 31 0 21 6 29
28 35 26 7 27 6 27 -31 0 -37 -4 -42 -87 -104 -335 -251 -778 -296 -1151 -116
-103 50 -208 118 -249 162 -12 12 -25 41 -29 63 l-7 40 23 -29 c48 -59 136
-72 213 -32 48 26 57 25 57 -9 0 -21 2 -21 68 -13 37 5 82 13 100 19 31 10 32
12 32 65 0 30 5 54 10 54 6 0 74 -32 151 -71 180 -90 189 -89 189 14 l0 73 43
16 c59 22 58 22 55 -19z"/>
<path d="M383 872 c-9 -6 -8 -24 8 -77 12 -39 25 -74 29 -79 12 -12 67 45 76
79 10 39 -23 79 -67 83 -19 1 -39 -1 -46 -6z m69 -60 c7 -51 -14 -74 -26 -28
-3 13 -9 31 -12 40 -4 11 0 16 14 16 14 0 21 -8 24 -28z"/>
<path d="M1302 913 c-37 -15 -49 -97 -17 -123 19 -16 119 98 104 117 -11 13
-61 17 -87 6z"/>
<path d="M2010 823 c-53 -19 -69 -89 -28 -117 47 -33 118 -8 118 41 0 25 -1
25 -18 10 -10 -10 -25 -17 -34 -17 -16 0 -48 30 -48 45 0 5 7 17 17 27 17 19
17 20 -7 11z"/>
<path d="M685 765 c-14 -13 -25 -33 -25 -45 0 -28 44 -70 73 -70 35 0 77 36
77 67 0 25 -1 25 -19 9 -39 -35 -100 2 -73 44 17 28 -3 26 -33 -5z"/>
</g>
</svg>
